<svg xmlns="http://www.w3.org/2000/svg" xmlns:xlink="http://www.w3.org/1999/xlink" width="200" zoomAndPan="magnify" viewBox="0 0 150 74.999997" height="100" preserveAspectRatio="xMidYMid meet" version="1.2"><g id="025d9b6398"><path style=" stroke:none;fill-rule:nonzero;fill:#000000;fill-opacity:1;" d="M 62.402344 39.445312 C 62.15625 38.90625 61.84375 38.460938 61.484375 38.101562 C 61.105469 37.722656 60.589844 37.429688 59.984375 37.160156 C 59.402344 36.914062 58.910156 36.734375 58.488281 36.625 C 58.105469 36.511719 57.570312 36.378906 56.875 36.199219 L 56.851562 36.199219 C 56.226562 36.066406 55.757812 35.953125 55.445312 35.863281 C 55.152344 35.773438 54.75 35.640625 54.28125 35.4375 C 53.832031 35.257812 53.519531 35.082031 53.363281 34.921875 C 53.183594 34.765625 53.027344 34.542969 52.847656 34.207031 C 52.714844 33.9375 52.625 33.601562 52.625 33.199219 C 52.625 32.777344 52.714844 32.417969 52.871094 32.082031 C 53.027344 31.746094 53.296875 31.433594 53.652344 31.121094 C 54.011719 30.804688 54.414062 30.582031 54.816406 30.449219 C 55.21875 30.3125 55.691406 30.222656 56.183594 30.222656 C 57.144531 30.222656 57.949219 30.449219 58.644531 30.875 C 59.246094 31.230469 59.695312 31.722656 60.054688 32.371094 C 60.144531 32.550781 60.300781 32.707031 60.457031 32.796875 C 60.636719 32.886719 60.8125 32.953125 61.015625 32.953125 C 61.195312 32.953125 61.394531 32.910156 61.550781 32.820312 L 61.597656 32.796875 C 61.777344 32.707031 61.910156 32.550781 62 32.394531 C 62.089844 32.238281 62.132812 32.035156 62.132812 31.859375 C 62.132812 31.679688 62.089844 31.523438 62.023438 31.367188 C 61.53125 30.359375 60.769531 29.554688 59.808594 28.972656 C 58.734375 28.324219 57.503906 27.988281 56.183594 28.007812 C 55.398438 28.007812 54.660156 28.121094 53.964844 28.390625 C 53.273438 28.636719 52.648438 29.015625 52.066406 29.484375 C 51.484375 29.976562 51.035156 30.539062 50.722656 31.164062 C 50.410156 31.789062 50.273438 32.484375 50.273438 33.222656 C 50.273438 33.9375 50.410156 34.589844 50.675781 35.191406 C 50.921875 35.730469 51.214844 36.175781 51.59375 36.558594 C 51.976562 36.9375 52.46875 37.226562 53.070312 37.496094 C 53.652344 37.742188 54.144531 37.921875 54.570312 38.035156 C 54.972656 38.144531 55.511719 38.28125 56.203125 38.4375 C 56.832031 38.570312 57.300781 38.683594 57.613281 38.773438 C 57.925781 38.863281 58.308594 38.996094 58.777344 39.199219 C 59.226562 39.375 59.515625 39.554688 59.671875 39.710938 C 59.851562 39.867188 60.007812 40.09375 60.1875 40.429688 C 60.320312 40.71875 60.410156 41.054688 60.410156 41.457031 C 60.410156 41.949219 60.320312 42.375 60.144531 42.753906 C 59.964844 43.136719 59.71875 43.449219 59.335938 43.738281 C 58.957031 44.03125 58.554688 44.253906 58.0625 44.410156 C 57.570312 44.566406 57.03125 44.636719 56.429688 44.636719 C 55.355469 44.636719 54.460938 44.410156 53.675781 43.964844 C 53.003906 43.582031 52.535156 43.070312 52.175781 42.441406 C 51.976562 42.085938 51.59375 41.859375 51.214844 41.859375 C 51.035156 41.859375 50.878906 41.90625 50.722656 41.972656 L 50.675781 41.996094 C 50.5 42.085938 50.339844 42.242188 50.230469 42.398438 C 50.117188 42.554688 50.074219 42.753906 50.074219 42.957031 C 50.074219 43.136719 50.117188 43.292969 50.183594 43.449219 C 50.699219 44.457031 51.503906 45.285156 52.511719 45.867188 C 53.09375 46.203125 53.71875 46.449219 54.371094 46.605469 C 55.019531 46.761719 55.710938 46.851562 56.429688 46.851562 C 57.300781 46.851562 58.128906 46.738281 58.867188 46.492188 C 59.605469 46.246094 60.300781 45.886719 60.882812 45.394531 C 61.484375 44.902344 61.933594 44.320312 62.246094 43.652344 C 62.558594 42.980469 62.695312 42.242188 62.695312 41.433594 C 62.804688 40.695312 62.671875 40.046875 62.402344 39.445312 Z M 61.105469 31.835938 Z M 61.105469 31.835938 "/><path style=" stroke:none;fill-rule:nonzero;fill:#000000;fill-opacity:1;" d="M 91.046875 37.699219 C 91.046875 37.988281 90.933594 38.257812 90.730469 38.460938 C 90.53125 38.660156 90.261719 38.792969 89.949219 38.792969 L 89.859375 38.792969 C 89.410156 38.792969 89.03125 38.527344 88.851562 38.144531 C 88.5625 37.476562 88.269531 36.9375 87.957031 36.511719 C 87.667969 36.085938 87.351562 35.773438 87.015625 35.550781 C 86.792969 35.394531 86.570312 35.28125 86.300781 35.214844 C 85.964844 35.101562 85.539062 35.035156 85.070312 35.035156 C 85.027344 35.035156 84.980469 35.035156 84.9375 35.035156 L 84.867188 35.035156 C 84.445312 35.035156 84.085938 35.125 83.773438 35.257812 C 83.460938 35.394531 83.191406 35.59375 82.96875 35.863281 C 82.722656 36.15625 82.542969 36.488281 82.40625 36.871094 C 82.273438 37.25 82.207031 37.699219 82.207031 38.214844 L 82.207031 45.867188 C 82.207031 46.15625 82.070312 46.449219 81.894531 46.625 C 81.691406 46.828125 81.421875 46.941406 81.132812 46.941406 L 81.066406 46.941406 C 80.773438 46.941406 80.484375 46.804688 80.28125 46.625 C 80.082031 46.425781 79.96875 46.15625 79.96875 45.867188 L 79.96875 38.167969 C 79.96875 36.488281 80.527344 35.125 81.355469 34.230469 C 81.78125 33.78125 82.296875 33.425781 82.878906 33.179688 C 83.4375 32.953125 84.0625 32.84375 84.734375 32.820312 L 85.09375 32.820312 C 85.203125 32.820312 85.316406 32.820312 85.449219 32.820312 C 85.898438 32.84375 86.347656 32.910156 86.792969 33.023438 C 87.242188 33.132812 87.6875 33.335938 88.136719 33.601562 C 88.605469 33.894531 89.007812 34.230469 89.34375 34.609375 C 89.679688 34.992188 89.992188 35.414062 90.261719 35.910156 C 90.441406 36.222656 90.6875 36.648438 90.957031 37.226562 C 91.023438 37.386719 91.046875 37.542969 91.046875 37.699219 Z M 91.046875 37.699219 "/><path style=" stroke:none;fill-rule:nonzero;fill:#000000;fill-opacity:1;" d="M 101.136719 33.984375 C 101.136719 34.117188 101.113281 34.253906 101.070312 34.363281 L 96.953125 45.285156 C 96.816406 45.664062 96.617188 45.976562 96.347656 46.246094 C 96.101562 46.515625 95.765625 46.714844 95.410156 46.828125 C 95.164062 46.894531 94.917969 46.941406 94.671875 46.941406 C 94.289062 46.941406 93.910156 46.871094 93.574219 46.695312 C 93.238281 46.539062 92.945312 46.269531 92.746094 45.976562 C 92.613281 45.777344 92.5 45.574219 92.410156 45.351562 L 92.410156 45.328125 L 90.84375 42.085938 C 90.777344 41.925781 90.730469 41.769531 90.730469 41.613281 C 90.730469 41.324219 90.84375 41.054688 91.046875 40.855469 C 91.246094 40.652344 91.515625 40.519531 91.828125 40.519531 L 91.851562 40.519531 C 92.277344 40.519531 92.65625 40.765625 92.835938 41.121094 L 94.46875 44.480469 C 94.492188 44.5 94.492188 44.523438 94.492188 44.546875 C 94.535156 44.636719 94.558594 44.679688 94.582031 44.703125 L 94.601562 44.726562 C 94.601562 44.726562 94.625 44.726562 94.671875 44.726562 C 94.714844 44.726562 94.738281 44.726562 94.738281 44.726562 C 94.738281 44.726562 94.757812 44.726562 94.78125 44.679688 C 94.804688 44.65625 94.828125 44.613281 94.847656 44.546875 L 98.988281 33.601562 C 99.144531 33.179688 99.546875 32.886719 100.019531 32.886719 L 100.0625 32.886719 C 100.375 32.886719 100.644531 33.023438 100.847656 33.222656 C 101.023438 33.425781 101.136719 33.691406 101.136719 33.984375 Z M 101.136719 33.984375 "/><path style=" stroke:none;fill-rule:nonzero;fill:#000000;fill-opacity:1;" d="M 105.433594 33.984375 L 105.433594 45.867188 C 105.433594 46.15625 105.320312 46.449219 105.121094 46.648438 C 104.917969 46.851562 104.648438 46.960938 104.335938 46.960938 L 104.269531 46.960938 C 103.980469 46.960938 103.6875 46.851562 103.488281 46.648438 C 103.285156 46.449219 103.171875 46.179688 103.171875 45.867188 L 103.171875 33.984375 C 103.171875 33.691406 103.285156 33.402344 103.488281 33.199219 C 103.6875 33 103.957031 32.886719 104.269531 32.886719 L 104.335938 32.886719 C 104.628906 32.886719 104.917969 33 105.121094 33.199219 C 105.320312 33.402344 105.433594 33.691406 105.433594 33.984375 Z M 105.433594 33.984375 "/><path style=" stroke:none;fill-rule:nonzero;fill:#000000;fill-opacity:1;" d="M 120.605469 42.933594 C 120.695312 43.089844 120.738281 43.269531 120.738281 43.472656 C 120.738281 43.671875 120.671875 43.898438 120.558594 44.074219 C 119.933594 45.015625 119.148438 45.730469 118.210938 46.203125 C 117.269531 46.671875 116.195312 46.917969 115.011719 46.917969 L 114.945312 46.917969 C 114.046875 46.917969 113.175781 46.738281 112.371094 46.402344 C 111.566406 46.046875 110.824219 45.53125 110.175781 44.859375 C 109.507812 44.164062 108.992188 43.40625 108.632812 42.53125 C 108.296875 41.679688 108.117188 40.765625 108.117188 39.78125 C 108.117188 39.0625 108.207031 38.324219 108.386719 37.542969 C 108.476562 37.160156 108.609375 36.804688 108.8125 36.488281 C 109.574219 35.238281 110.46875 34.273438 111.519531 33.625 C 112.550781 32.976562 113.734375 32.640625 115.011719 32.640625 C 116.21875 32.640625 117.335938 32.910156 118.367188 33.46875 C 119.261719 33.960938 120 34.632812 120.558594 35.503906 C 120.671875 35.683594 120.738281 35.910156 120.738281 36.109375 C 120.738281 36.289062 120.695312 36.488281 120.605469 36.648438 C 120.515625 36.804688 120.382812 36.960938 120.203125 37.050781 L 120.15625 37.070312 C 119.976562 37.183594 119.777344 37.226562 119.597656 37.226562 C 119.417969 37.226562 119.238281 37.183594 119.082031 37.09375 C 118.925781 37.003906 118.792969 36.894531 118.679688 36.734375 C 118.253906 36.085938 117.742188 35.640625 117.160156 35.328125 C 116.554688 35.011719 115.859375 34.855469 115.011719 34.855469 C 114.382812 34.855469 113.824219 34.96875 113.289062 35.214844 C 112.75 35.460938 112.257812 35.820312 111.789062 36.3125 C 111.320312 36.804688 110.960938 37.339844 110.738281 37.921875 C 110.511719 38.503906 110.402344 39.109375 110.402344 39.800781 C 110.402344 40.472656 110.511719 41.101562 110.738281 41.679688 C 110.960938 42.261719 111.320312 42.777344 111.789062 43.269531 C 112.257812 43.761719 112.75 44.121094 113.289062 44.367188 C 113.824219 44.589844 114.382812 44.726562 115.011719 44.726562 C 115.859375 44.726562 116.554688 44.566406 117.160156 44.253906 C 117.761719 43.941406 118.253906 43.492188 118.679688 42.84375 C 118.792969 42.6875 118.925781 42.578125 119.082031 42.488281 C 119.238281 42.398438 119.417969 42.351562 119.597656 42.351562 C 119.800781 42.351562 119.976562 42.398438 120.15625 42.507812 L 120.203125 42.53125 C 120.382812 42.644531 120.515625 42.777344 120.605469 42.933594 Z M 120.605469 42.933594 "/><path style=" stroke:none;fill-rule:nonzero;fill:#000000;fill-opacity:1;" d="M 146.964844 42.6875 C 146.964844 43.316406 146.832031 43.898438 146.585938 44.410156 C 146.339844 44.925781 145.933594 45.394531 145.421875 45.753906 C 144.929688 46.132812 144.390625 46.402344 143.808594 46.582031 C 143.226562 46.761719 142.601562 46.851562 141.929688 46.851562 C 140.832031 46.851562 139.804688 46.605469 138.910156 46.089844 C 138.125 45.664062 137.5 45.039062 137.03125 44.253906 C 136.917969 44.074219 136.871094 43.875 136.871094 43.671875 C 136.871094 43.492188 136.917969 43.292969 137.03125 43.136719 C 137.117188 42.980469 137.253906 42.824219 137.433594 42.734375 L 137.476562 42.710938 C 137.65625 42.621094 137.835938 42.578125 138.015625 42.578125 C 138.191406 42.578125 138.371094 42.621094 138.550781 42.710938 C 138.707031 42.800781 138.863281 42.933594 138.953125 43.089844 C 139.289062 43.628906 139.667969 43.984375 140.160156 44.253906 C 140.65625 44.5 141.214844 44.636719 141.929688 44.636719 C 142.355469 44.636719 142.734375 44.589844 143.070312 44.480469 C 143.40625 44.390625 143.71875 44.230469 143.988281 44.03125 C 144.257812 43.851562 144.414062 43.652344 144.527344 43.425781 C 144.636719 43.203125 144.703125 42.957031 144.703125 42.644531 C 144.703125 42.417969 144.660156 42.242188 144.613281 42.085938 C 144.546875 41.925781 144.480469 41.816406 144.347656 41.703125 C 144.078125 41.433594 143.71875 41.257812 143.25 41.144531 C 142.667969 41.011719 142.0625 40.875 141.414062 40.695312 C 140.765625 40.539062 140.140625 40.359375 139.558594 40.183594 C 139.222656 40.070312 138.886719 39.914062 138.59375 39.710938 C 138.304688 39.511719 138.035156 39.265625 137.8125 38.972656 C 137.589844 38.683594 137.410156 38.324219 137.277344 37.945312 C 137.164062 37.5625 137.097656 37.183594 137.097656 36.757812 C 137.097656 36.175781 137.207031 35.617188 137.453125 35.125 C 137.699219 34.632812 138.058594 34.183594 138.527344 33.804688 C 138.976562 33.445312 139.492188 33.15625 140.050781 32.976562 C 140.609375 32.796875 141.191406 32.707031 141.796875 32.707031 C 142.757812 32.707031 143.628906 32.886719 144.414062 33.246094 C 145.175781 33.601562 145.824219 34.164062 146.316406 34.878906 C 146.449219 35.058594 146.515625 35.28125 146.496094 35.484375 C 146.496094 35.683594 146.449219 35.863281 146.359375 36.019531 C 146.269531 36.175781 146.136719 36.332031 145.957031 36.421875 L 145.914062 36.445312 C 145.734375 36.535156 145.554688 36.578125 145.375 36.578125 C 145.019531 36.578125 144.683594 36.402344 144.457031 36.109375 C 144.167969 35.707031 143.832031 35.414062 143.40625 35.214844 C 142.980469 35.011719 142.46875 34.902344 141.816406 34.902344 C 141.460938 34.902344 141.125 34.945312 140.832031 35.035156 C 140.542969 35.125 140.273438 35.257812 140.027344 35.460938 C 139.78125 35.640625 139.625 35.839844 139.535156 36.019531 C 139.421875 36.222656 139.378906 36.445312 139.378906 36.714844 C 139.378906 36.960938 139.421875 37.160156 139.492188 37.316406 C 139.558594 37.476562 139.667969 37.609375 139.847656 37.722656 C 140.273438 38.011719 140.8125 38.234375 141.480469 38.371094 C 142.242188 38.527344 142.980469 38.683594 143.742188 38.863281 C 144.59375 39.0625 145.351562 39.464844 145.957031 40.027344 C 146.292969 40.339844 146.539062 40.71875 146.695312 41.144531 C 146.898438 41.703125 146.964844 42.171875 146.964844 42.6875 Z M 146.964844 42.6875 "/><path style=" stroke:none;fill-rule:nonzero;fill:#000000;fill-opacity:1;" d="M 77.261719 36.667969 C 76.949219 35.863281 76.5 35.125 75.894531 34.5 C 75.292969 33.871094 74.574219 33.378906 73.769531 33.066406 C 72.964844 32.753906 72.09375 32.597656 71.128906 32.597656 C 70.167969 32.597656 69.273438 32.777344 68.46875 33.109375 C 67.660156 33.46875 66.921875 33.984375 66.296875 34.675781 C 65.667969 35.371094 65.199219 36.132812 64.886719 36.980469 C 64.574219 37.832031 64.417969 38.75 64.417969 39.734375 C 64.417969 40.71875 64.574219 41.636719 64.910156 42.488281 C 65.246094 43.335938 65.757812 44.097656 66.410156 44.792969 C 67.078125 45.484375 67.816406 46 68.667969 46.359375 C 69.519531 46.714844 70.414062 46.871094 71.398438 46.871094 C 72.585938 46.871094 73.660156 46.648438 74.597656 46.15625 C 75.539062 45.6875 76.320312 44.949219 76.949219 44.03125 C 77.082031 43.851562 77.125 43.628906 77.125 43.425781 C 77.125 43.246094 77.082031 43.070312 76.992188 42.890625 C 76.902344 42.734375 76.769531 42.578125 76.589844 42.488281 C 76.410156 42.375 76.210938 42.332031 76.03125 42.332031 C 75.851562 42.332031 75.671875 42.375 75.515625 42.464844 C 75.359375 42.554688 75.226562 42.664062 75.113281 42.824219 C 74.6875 43.449219 74.195312 43.898438 73.589844 44.1875 C 72.988281 44.5 72.25 44.65625 71.398438 44.65625 C 70.726562 44.65625 70.121094 44.546875 69.585938 44.320312 C 69.046875 44.097656 68.554688 43.761719 68.109375 43.316406 C 67.707031 42.914062 67.394531 42.464844 67.167969 41.972656 C 66.96875 41.570312 66.832031 41.121094 66.765625 40.652344 L 76.613281 40.652344 C 76.902344 40.652344 77.195312 40.539062 77.371094 40.339844 C 77.574219 40.136719 77.6875 39.867188 77.6875 39.554688 L 77.6875 39.308594 C 77.707031 38.371094 77.574219 37.476562 77.261719 36.667969 Z M 66.832031 38.570312 C 67.011719 37.5625 67.4375 36.757812 68.085938 36.066406 C 68.488281 35.640625 68.9375 35.347656 69.429688 35.148438 C 69.921875 34.945312 70.480469 34.835938 71.128906 34.835938 C 71.800781 34.835938 72.382812 34.945312 72.875 35.148438 C 73.390625 35.347656 73.835938 35.640625 74.238281 36.042969 C 74.597656 36.402344 74.867188 36.804688 75.066406 37.273438 C 75.246094 37.675781 75.335938 38.101562 75.402344 38.59375 Z M 66.832031 38.570312 "/><path style=" stroke:none;fill-rule:nonzero;fill:#000000;fill-opacity:1;" d="M 134.589844 36.667969 C 134.277344 35.863281 133.828125 35.125 133.226562 34.5 C 132.621094 33.871094 131.90625 33.378906 131.097656 33.066406 C 130.292969 32.753906 129.421875 32.597656 128.460938 32.597656 C 127.496094 32.597656 126.601562 32.777344 125.796875 33.109375 C 124.992188 33.46875 124.253906 33.984375 123.625 34.675781 C 123 35.371094 122.527344 36.132812 122.214844 36.980469 C 121.902344 37.832031 121.746094 38.75 121.746094 39.734375 C 121.746094 40.71875 121.902344 41.636719 122.238281 42.488281 C 122.574219 43.335938 123.089844 44.097656 123.738281 44.792969 C 124.410156 45.484375 125.148438 46 125.996094 46.359375 C 126.824219 46.714844 127.742188 46.871094 128.726562 46.871094 C 129.914062 46.871094 130.988281 46.648438 131.925781 46.15625 C 132.867188 45.6875 133.652344 44.949219 134.277344 44.03125 C 134.410156 43.851562 134.457031 43.628906 134.457031 43.425781 C 134.457031 43.246094 134.410156 43.070312 134.320312 42.890625 C 134.230469 42.734375 134.097656 42.578125 133.917969 42.488281 C 133.738281 42.375 133.539062 42.332031 133.359375 42.332031 C 133.179688 42.332031 133 42.375 132.84375 42.464844 C 132.6875 42.554688 132.554688 42.664062 132.441406 42.824219 C 132.015625 43.449219 131.523438 43.898438 130.921875 44.1875 C 130.316406 44.5 129.601562 44.65625 128.726562 44.65625 C 128.054688 44.65625 127.453125 44.546875 126.914062 44.320312 C 126.378906 44.097656 125.886719 43.761719 125.4375 43.316406 C 125.035156 42.914062 124.722656 42.464844 124.5 41.972656 C 124.296875 41.570312 124.183594 41.121094 124.09375 40.652344 L 133.941406 40.652344 C 134.230469 40.652344 134.523438 40.539062 134.722656 40.339844 C 134.925781 40.136719 135.039062 39.867188 135.039062 39.554688 L 135.039062 39.308594 C 135.039062 38.371094 134.902344 37.476562 134.589844 36.667969 Z M 124.164062 38.570312 C 124.339844 37.5625 124.765625 36.757812 125.4375 36.066406 C 125.839844 35.640625 126.289062 35.347656 126.78125 35.148438 C 127.273438 34.945312 127.832031 34.835938 128.480469 34.835938 C 129.152344 34.835938 129.710938 34.945312 130.226562 35.148438 C 130.742188 35.347656 131.1875 35.640625 131.589844 36.042969 C 131.949219 36.402344 132.21875 36.804688 132.417969 37.273438 C 132.597656 37.675781 132.6875 38.101562 132.753906 38.59375 Z M 124.164062 38.570312 "/><path style=" stroke:none;fill-rule:nonzero;fill:#000000;fill-opacity:1;" d="M 105.792969 29.328125 C 105.792969 29.523438 105.753906 29.714844 105.679688 29.894531 C 105.605469 30.074219 105.496094 30.234375 105.359375 30.375 C 105.21875 30.511719 105.0625 30.617188 104.878906 30.695312 C 104.699219 30.769531 104.511719 30.804688 104.316406 30.804688 C 104.117188 30.804688 103.929688 30.769531 103.75 30.695312 C 103.566406 30.617188 103.410156 30.511719 103.269531 30.375 C 103.132812 30.234375 103.023438 30.074219 102.949219 29.894531 C 102.875 29.714844 102.835938 29.523438 102.835938 29.328125 C 102.835938 29.132812 102.875 28.945312 102.949219 28.765625 C 103.023438 28.582031 103.132812 28.421875 103.269531 28.285156 C 103.410156 28.148438 103.566406 28.039062 103.75 27.964844 C 103.929688 27.890625 104.117188 27.851562 104.316406 27.851562 C 104.511719 27.851562 104.699219 27.890625 104.878906 27.964844 C 105.0625 28.039062 105.21875 28.148438 105.359375 28.285156 C 105.496094 28.421875 105.605469 28.582031 105.679688 28.765625 C 105.753906 28.945312 105.792969 29.132812 105.792969 29.328125 Z M 105.792969 29.328125 "/><path style=" stroke:none;fill-rule:nonzero;fill:#ff315d;fill-opacity:1;" d="M 37.25 33.917969 C 35.257812 30.335938 31.703125 28.164062 27.898438 27.832031 C 28.792969 25.683594 28.726562 23.175781 27.515625 20.984375 C 25.390625 17.132812 20.582031 15.746094 16.730469 17.871094 C 14.898438 18.878906 13.621094 20.511719 13.015625 22.347656 C 11.519531 22.503906 10.042969 22.972656 8.632812 23.757812 C 2.902344 26.933594 0.820312 34.140625 3.976562 39.867188 C 5.945312 43.449219 9.527344 45.621094 13.308594 45.957031 C 12.433594 48.105469 12.480469 50.609375 13.6875 52.800781 C 15.8125 56.628906 20.625 58.039062 24.472656 55.914062 C 26.308594 54.90625 27.585938 53.273438 28.1875 51.4375 C 29.6875 51.28125 31.164062 50.8125 32.574219 50.027344 C 38.324219 46.851562 40.40625 39.644531 37.25 33.917969 Z M 17.066406 22.503906 C 17.425781 21.945312 17.917969 21.476562 18.542969 21.140625 C 19.191406 20.78125 19.886719 20.625 20.558594 20.625 C 22.035156 20.625 23.46875 21.40625 24.226562 22.796875 C 24.585938 23.445312 24.742188 24.136719 24.742188 24.808594 C 24.742188 25.636719 24.496094 26.441406 24.027344 27.136719 C 23.667969 27.671875 23.175781 28.144531 22.570312 28.480469 C 21.945312 28.835938 21.25 28.992188 20.582031 28.992188 C 19.105469 28.992188 17.671875 28.210938 16.910156 26.84375 C 16.84375 26.710938 16.753906 26.578125 16.710938 26.421875 C 16.484375 25.90625 16.394531 25.367188 16.394531 24.832031 C 16.394531 24.003906 16.621094 23.199219 17.066406 22.503906 Z M 24.183594 51.257812 C 23.824219 51.816406 23.332031 52.289062 22.707031 52.625 C 22.058594 52.980469 21.363281 53.136719 20.691406 53.136719 C 19.214844 53.136719 17.785156 52.355469 17.023438 50.96875 C 16.664062 50.320312 16.507812 49.625 16.507812 48.953125 C 16.507812 48.125 16.753906 47.320312 17.222656 46.625 C 17.582031 46.089844 18.074219 45.621094 18.679688 45.304688 C 19.304688 44.949219 20 44.792969 20.671875 44.792969 L 20.691406 44.792969 C 22.167969 44.792969 23.601562 45.574219 24.363281 46.960938 C 24.429688 47.097656 24.519531 47.253906 24.5625 47.386719 C 24.789062 47.902344 24.875 48.4375 24.875 48.976562 C 24.855469 49.78125 24.628906 50.566406 24.183594 51.257812 Z M 30.808594 46.804688 C 30.066406 47.207031 29.285156 47.5 28.503906 47.65625 C 28.367188 46.785156 28.078125 45.933594 27.628906 45.128906 C 26.710938 43.449219 25.257812 42.242188 23.625 41.59375 C 22.125 40.988281 20.46875 40.855469 18.859375 41.234375 C 18.433594 41.324219 18.03125 41.457031 17.605469 41.636719 L 17.582031 41.636719 C 16.84375 41.949219 16.082031 42.152344 15.300781 42.242188 C 12.101562 42.597656 8.878906 41.054688 7.222656 38.054688 C 5.050781 34.117188 6.484375 29.128906 10.421875 26.957031 C 11.160156 26.554688 11.941406 26.265625 12.726562 26.105469 C 12.882812 26.980469 13.152344 27.832031 13.597656 28.636719 C 14.515625 30.3125 15.972656 31.523438 17.605469 32.171875 C 19.105469 32.777344 20.757812 32.910156 22.371094 32.507812 C 22.796875 32.417969 23.222656 32.285156 23.625 32.105469 C 24.363281 31.789062 25.144531 31.589844 25.90625 31.5 C 29.082031 31.140625 32.328125 32.6875 33.960938 35.660156 C 36.199219 39.644531 34.765625 44.613281 30.808594 46.804688 Z M 30.808594 46.804688 "/></g></svg>